<svg width="140" height="140" viewBox="0 0 140 140" fill="none" xmlns="http://www.w3.org/2000/svg">
<path d="M104.211 5.99988H25.2108C21.2293 5.99988 18 9.21269 18 13.1734V127.767H18.0037L18.0386 131.956C18.0478 133.185 19.3131 134.008 20.4477 133.523L28.7582 129.977L33.0027 133.587C33.65 134.137 34.6026 134.137 35.2481 133.587L41.7711 128.041L48.2941 133.587C48.9414 134.137 49.894 134.137 50.5395 133.587L57.0625 128.041L63.5855 133.587C64.2329 134.137 65.1855 134.137 65.831 133.587L72.354 128.041L78.8769 133.587C79.5243 134.137 80.4769 134.137 81.1224 133.587L87.6454 128.041L94.1684 133.587C94.8157 134.137 95.7683 134.137 96.4138 133.587L100.658 129.977L108.969 133.523C110.103 134.008 111.369 133.185 111.378 131.956L111.413 127.767H111.416V13.1734C111.416 9.21086 108.189 5.99988 104.206 5.99988H104.211Z" fill="#D8FFD7" stroke="#3B7A3A" stroke-miterlimit="10"/>
<path d="M103.606 69.2961H25.7534C24.7382 69.2961 23.9144 68.4769 23.9144 67.4675C23.9144 66.4581 24.7382 65.6389 25.7534 65.6389H103.604C104.62 65.6389 105.443 66.4581 105.443 67.4675C105.443 68.4769 104.62 69.2961 103.604 69.2961H103.606Z" fill="#6CB46B"/>
<path d="M103.606 80.2858H25.7533C24.7382 80.2858 23.9143 79.4666 23.9143 78.4572C23.9143 77.4479 24.7382 76.6287 25.7533 76.6287H103.604C104.62 76.6287 105.443 77.4479 105.443 78.4572C105.443 79.4666 104.62 80.2858 103.604 80.2858H103.606Z" fill="#6CB46B"/>
<path d="M70.0129 102.263H25.7533C24.7382 102.263 23.9143 101.444 23.9143 100.435C23.9143 99.4255 24.7382 98.6063 25.7533 98.6063H70.0129C71.028 98.6063 71.8519 99.4255 71.8519 100.435C71.8519 101.444 71.028 102.263 70.0129 102.263Z" fill="#6CB46B"/>
<path d="M91.7133 91.2756H25.7533C24.7382 91.2756 23.9143 90.4564 23.9143 89.447C23.9143 88.4376 24.7382 87.6184 25.7533 87.6184H91.7133C92.7284 87.6184 93.5523 88.4376 93.5523 89.447C93.5523 90.4564 92.7284 91.2756 91.7133 91.2756Z" fill="#6CB46B"/>
<path d="M103.667 26.136H67.3155C66.3003 26.136 65.4764 25.3168 65.4764 24.3075C65.4764 23.2981 66.3003 22.4789 67.3155 22.4789H103.667C104.682 22.4789 105.506 23.2981 105.506 24.3075C105.506 25.3168 104.682 26.136 103.667 26.136Z" fill="#6CB46B"/>
<path d="M103.667 36.9338H67.3153C66.3002 36.9338 65.4763 36.1146 65.4763 35.1052C65.4763 34.0958 66.3002 33.2766 67.3153 33.2766H103.667C104.682 33.2766 105.506 34.0958 105.506 35.1052C105.506 36.1146 104.682 36.9338 103.667 36.9338Z" fill="#6CB46B"/>
<path d="M103.667 47.7316H67.3153C66.3002 47.7316 65.4763 46.9124 65.4763 45.903C65.4763 44.8937 66.3002 44.0745 67.3153 44.0745H103.667C104.682 44.0745 105.506 44.8937 105.506 45.903C105.506 46.9124 104.682 47.7316 103.667 47.7316Z" fill="#6CB46B"/>
<path d="M25.7535 33.467H54.6316V36.7438H25.7535V33.467ZM26.3623 23.5872H31.2871L34.2774 39.5452H34.4852L37.972 23.5872H42.4003L45.9018 39.5762H46.0783L49.0998 23.5872H54.0247L48.7799 46.6236H43.5828L40.2726 30.9051H40.0813L36.8042 46.6236H31.5906L26.3623 23.5872Z" fill="#6CB46B"/>
<path d="M129.5 104.354C129.5 114.325 121.369 122.414 111.334 122.414C101.298 122.414 93.168 114.325 93.168 104.354C93.168 94.3819 101.298 86.2935 111.334 86.2935C121.369 86.2935 129.5 94.3819 129.5 104.354Z" fill="#6CB46B" stroke="#3B7A3A"/>
<path d="M109.035 114.001C108.665 114.001 108.322 113.818 108.117 113.513L101.32 103.373C100.982 102.869 101.12 102.189 101.626 101.852C102.133 101.516 102.817 101.653 103.156 102.156L109.033 110.922L119.512 95.1997C119.849 94.695 120.533 94.556 121.042 94.8906C121.55 95.2253 121.689 95.9055 121.353 96.412L109.956 113.509C109.752 113.815 109.408 113.999 109.039 114.001H109.035Z" fill="white"/>
</svg>
