<svg width="140" height="140" viewBox="0 0 140 140" fill="none" xmlns="http://www.w3.org/2000/svg">
<path d="M39.3816 73.2304L63.5999 33.4565C63.5999 33.4565 65.1134 29.536 68.5656 29.5623C72.5825 29.5942 73.4654 31.622 74.3425 33.1395L100.618 73.2285" stroke="#842E1B" stroke-width="3" stroke-miterlimit="10"/>
<path d="M70 45.1338C75.302 45.1338 79.6 40.8505 79.6 35.5669C79.6 30.2832 75.302 26 70 26C64.6981 26 60.4 30.2832 60.4 35.5669C60.4 40.8505 64.6981 45.1338 70 45.1338Z" fill="#FFA591" stroke="#842E1B" stroke-miterlimit="10"/>
<path d="M70.0002 43.2579C74.2626 43.2579 77.7179 39.8145 77.7179 35.5669C77.7179 31.3192 74.2626 27.8759 70.0002 27.8759C65.7379 27.8759 62.2826 31.3192 62.2826 35.5669C62.2826 39.8145 65.7379 43.2579 70.0002 43.2579Z" fill="white"/>
<path d="M70.0002 41.382C73.223 41.382 75.8355 38.7785 75.8355 35.5669C75.8355 32.3552 73.223 29.7517 70.0002 29.7517C66.7775 29.7517 64.1649 32.3552 64.1649 35.5669C64.1649 38.7785 66.7775 41.382 70.0002 41.382Z" fill="#F96C4C"/>
<path d="M127.224 72.2303H12.7765C9.03393 72.2303 6 75.2538 6 78.9834V108.247C6 111.976 9.03393 115 12.7765 115H127.224C130.966 115 134 111.976 134 108.247V78.9834C134 75.2538 130.966 72.2303 127.224 72.2303Z" fill="#FFA591" stroke="#842E1B" stroke-miterlimit="10"/>
<path d="M125.906 75.0442H14.0941C11.1832 75.0442 8.82349 77.3958 8.82349 80.2966V106.934C8.82349 109.835 11.1832 112.186 14.0941 112.186H125.906C128.817 112.186 131.176 109.835 131.176 106.934V80.2966C131.176 77.3958 128.817 75.0442 125.906 75.0442Z" fill="white"/>
<path d="M124.588 77.858H15.4117C13.3325 77.858 11.647 79.5377 11.647 81.6097V105.621C11.647 107.693 13.3325 109.372 15.4117 109.372H124.588C126.667 109.372 128.353 107.693 128.353 105.621V81.6097C128.353 79.5377 126.667 77.858 124.588 77.858Z" fill="#F96C4C"/>
<path d="M29.6367 89.6965C29.4391 89.4339 29.1661 89.2369 28.8179 89.1019C28.4696 88.9668 28.0593 88.9012 27.5868 88.9012C27.1144 88.9012 26.7078 88.9687 26.3708 89.1019C26.032 89.2369 25.7741 89.4227 25.5953 89.6628C25.4165 89.9029 25.3261 90.1749 25.3261 90.4825C25.3129 90.9552 25.5049 91.3248 25.9002 91.5893C26.2955 91.8538 26.8433 92.0676 27.5379 92.2271L28.784 92.5234C30.0941 92.8236 31.1144 93.3001 31.8447 93.951C32.5751 94.6019 32.9421 95.4836 32.9421 96.5959C32.9421 97.4382 32.7294 98.1735 32.3059 98.8001C31.8805 99.4266 31.2649 99.9068 30.4574 100.243C29.6499 100.578 28.6861 100.745 27.568 100.745C26.4442 100.751 25.4711 100.58 24.6504 100.233C23.8296 99.8843 23.1896 99.3741 22.7341 98.7006C22.2767 98.0272 22.032 97.2018 22 96.2245H24.7972C24.8292 96.6785 24.9628 97.063 25.2 97.3782C25.4372 97.6952 25.7534 97.9315 26.1544 98.0872C26.5534 98.2429 27.0146 98.3217 27.5379 98.3217C28.0612 98.3217 28.4734 98.2486 28.8499 98.1023C29.2264 97.9559 29.5181 97.7515 29.7214 97.4888C29.9266 97.2262 30.0282 96.9242 30.0282 96.5791C30.0282 96.2733 29.9398 96.0107 29.7591 95.7931C29.5802 95.5755 29.3205 95.3935 28.9779 95.2472C28.6353 95.1009 28.1967 94.9602 27.6602 94.8251L26.1374 94.4612C24.9233 94.1611 23.9915 93.7034 23.3402 93.0862C22.6889 92.469 22.3671 91.6662 22.3727 90.6757C22.3727 89.8522 22.5967 89.1206 23.0428 88.481C23.4908 87.8432 24.112 87.3498 24.9064 87.0047C25.7007 86.6595 26.6042 86.4869 27.6132 86.4869C28.6221 86.4869 29.5162 86.6614 30.2918 87.0084C31.0673 87.3573 31.6697 87.8469 32.0969 88.4791C32.5242 89.1113 32.7426 89.8335 32.7482 90.6438H29.9793C29.9473 90.2743 29.8325 89.9573 29.6348 89.6947L29.6367 89.6965Z" fill="white"/>
<path d="M46.6776 97.4382C46.1186 98.5111 45.3487 99.3309 44.368 99.8955C43.3873 100.46 42.2767 100.743 41.0381 100.743C39.7995 100.743 38.6889 100.46 37.7082 99.8955C36.7275 99.3309 35.9576 98.5093 35.3985 97.4325C34.8395 96.3558 34.559 95.084 34.559 93.6152C34.559 92.1464 34.8376 90.8633 35.3985 89.7884C35.9576 88.7117 36.7275 87.8938 37.7082 87.331C38.6889 86.7683 39.7995 86.4888 41.0381 86.4888C42.2767 86.4888 43.3873 86.7701 44.368 87.331C45.3487 87.8938 46.1186 88.7117 46.6776 89.7884C47.2367 90.8651 47.5153 92.1407 47.5153 93.6152C47.5153 95.0896 47.2367 96.3652 46.6776 97.4382ZM44.1684 91.124C43.8767 90.4412 43.4644 89.9216 42.928 89.567C42.3915 89.2125 41.7628 89.0362 41.04 89.0362C40.3171 89.0362 39.6997 89.2125 39.167 89.567C38.6343 89.9216 38.2183 90.4412 37.9209 91.124C37.6235 91.8068 37.4748 92.6378 37.4748 93.6152C37.4748 94.5925 37.6235 95.4122 37.9209 96.0913C38.2183 96.7722 38.6324 97.29 39.167 97.6482C39.6997 98.0065 40.3247 98.1885 41.04 98.1941C41.7628 98.1885 42.3915 98.0065 42.928 97.6482C43.4644 97.29 43.8785 96.7722 44.1684 96.0913C44.4583 95.4104 44.6051 94.585 44.6051 93.6152C44.6051 92.6453 44.4602 91.8068 44.1684 91.124Z" fill="white"/>
<path d="M49.6047 86.6782H52.4791V98.1754H58.448V100.552H49.6047V86.6782Z" fill="white"/>
<path d="M63.1917 100.552H60.3174V86.6782H63.1917V100.552ZM61.6011 100.552V98.0797H65.0797C65.9682 98.0797 66.7099 97.9202 67.3084 97.6014C67.9052 97.2825 68.355 96.7929 68.6543 96.1363C68.9555 95.4779 69.1042 94.6356 69.1042 93.6076C69.1042 92.5797 68.9517 91.7449 68.6487 91.0827C68.3456 90.4224 67.8976 89.9347 67.3066 89.6214C66.7155 89.3082 65.9795 89.1525 65.0986 89.1525H61.5334V86.6801H65.2416C66.627 86.6801 67.828 86.954 68.8444 87.5036C69.8609 88.0532 70.6383 88.8505 71.1786 89.8934C71.7188 90.9383 71.988 92.1745 71.988 93.6058C71.988 95.0371 71.7169 96.2826 71.1729 97.3237C70.6308 98.3648 69.8496 99.1639 68.8313 99.7192C67.8129 100.274 66.6026 100.552 65.204 100.552H61.6011Z" fill="white"/>
<path d="M90.4575 97.4382C89.8985 98.5111 89.1286 99.3309 88.1479 99.8955C87.1672 100.46 86.0566 100.743 84.818 100.743C83.5794 100.743 82.4688 100.46 81.4881 99.8955C80.5074 99.3309 79.7375 98.5093 79.1785 97.4325C78.6194 96.3558 78.3408 95.084 78.3408 93.6152C78.3408 92.1464 78.6194 90.8633 79.1785 89.7884C79.7375 88.7117 80.5074 87.8938 81.4881 87.331C82.4688 86.7683 83.5794 86.4888 84.818 86.4888C86.0566 86.4888 87.1672 86.7701 88.1479 87.331C89.1286 87.8938 89.8985 88.7117 90.4575 89.7884C91.0166 90.8651 91.2952 92.1407 91.2952 93.6152C91.2952 95.0896 91.0147 96.3652 90.4575 97.4382ZM87.9465 91.124C87.6566 90.4412 87.2425 89.9216 86.706 89.567C86.1695 89.2125 85.5408 89.0362 84.818 89.0362C84.0952 89.0362 83.4778 89.2125 82.9451 89.567C82.4124 89.9216 81.9964 90.4412 81.6989 91.124C81.4015 91.8068 81.2528 92.6378 81.2528 93.6152C81.2528 94.5925 81.4015 95.4122 81.6989 96.0913C81.9964 96.7703 82.4105 97.29 82.9451 97.6482C83.4778 98.0065 84.1027 98.1885 84.818 98.1941C85.5389 98.1885 86.1695 98.0065 86.706 97.6482C87.2425 97.29 87.6566 96.7722 87.9465 96.0913C88.2364 95.4104 88.3832 94.585 88.3832 93.6152C88.3832 92.6453 88.2382 91.8068 87.9465 91.124Z" fill="white"/>
<path d="M104.854 86.6782V95.6936C104.854 96.6972 104.616 97.5788 104.14 98.3423C103.664 99.1058 102.99 99.6967 102.118 100.115C101.247 100.533 100.246 100.743 99.1142 100.743C97.9829 100.743 96.9684 100.535 96.1062 100.115C95.2441 99.6967 94.574 99.1058 94.0996 98.3423C93.6234 97.5788 93.3862 96.6953 93.3862 95.6936V86.6782H96.2606V95.4535C96.2606 95.9844 96.3792 96.4571 96.6145 96.8716C96.8516 97.2862 97.1848 97.6145 97.6159 97.8546C98.0469 98.0947 98.5476 98.2148 99.1161 98.2148C99.6846 98.2148 100.178 98.0947 100.616 97.8546C101.053 97.6145 101.388 97.2881 101.618 96.8716C101.847 96.4571 101.966 95.9844 101.972 95.4535V86.6782H104.855H104.854Z" fill="white"/>
<path d="M106.636 86.6782H118V89.0549H113.746V100.552H110.9V89.0549H106.636V86.6782Z" fill="white"/>
</svg>
