<svg width="140" height="140" viewBox="0 0 140 140" fill="none" xmlns="http://www.w3.org/2000/svg">
<path d="M53.5774 121.207H41.3957C39.7657 121.207 38.3628 119.875 38.0403 118.022L32.0266 83.4429H51.1914L56.9311 116.454C57.3577 118.912 55.7381 121.207 53.5757 121.207H53.5774Z" fill="#C274EB" stroke="#61387F" stroke-linecap="round" stroke-linejoin="round"/>
<path d="M85.55 19.8674L46.891 37.9171C45.6616 38.4917 44.3211 38.7894 42.9634 38.7894H26.7812V83.3923H42.9634C44.3194 83.3923 45.6598 83.69 46.891 84.2645L85.55 102.314C90.1921 104.482 95.5052 101.078 95.5052 95.9402V26.245C95.5052 21.1053 90.1921 17.7033 85.55 19.8709V19.8674Z" fill="#D89EFC" stroke="#61387F" stroke-linecap="round" stroke-linejoin="round"/>
<path d="M107.954 77.053L95.5051 79.4801V43.8907L107.954 46.3178C109.983 46.713 111.446 48.4976 111.446 50.5713V72.7978C111.446 74.8732 109.981 76.656 107.954 77.0513V77.053Z" fill="#EECBFB" stroke="#61387F" stroke-linecap="round" stroke-linejoin="round"/>
<path d="M17.6773 38.84H26.703V83.2879H17.6773C14.5439 83.2879 12 80.7337 12 77.5876V44.542C12 41.3959 14.5439 38.8417 17.6773 38.8417V38.84Z" fill="#C274EB" stroke="#61387F" stroke-linecap="round" stroke-linejoin="round"/>
<path d="M32.0405 83.2861V45.9104" stroke="#61387F" stroke-linecap="round" stroke-linejoin="round"/>
<path d="M118.297 60.2343H132" stroke="#61387F" stroke-width="3" stroke-linecap="round" stroke-linejoin="round"/>
<path d="M118.297 49.7878L130.163 42.9088" stroke="#61387F" stroke-width="3" stroke-linecap="round" stroke-linejoin="round"/>
<path d="M118.297 70.6807L130.163 77.5597" stroke="#61387F" stroke-width="3" stroke-linecap="round" stroke-linejoin="round"/>
</svg>
