<svg width="140" height="140" viewBox="0 0 140 140" fill="none" xmlns="http://www.w3.org/2000/svg">
<path d="M107.741 6H23.2188C19.232 6 16 9.22899 16 13.2121V126.788C16 130.771 19.232 134 23.2188 134H107.741C111.728 134 114.96 130.771 114.96 126.788V13.2121C114.96 9.22899 111.728 6 107.741 6Z" fill="#D7E6FF" stroke="#0F34CA" stroke-linecap="round" stroke-linejoin="round"/>
<path d="M92.9891 67.8813H57.0419C56.0659 67.8813 55.2747 68.6718 55.2747 69.6469C55.2747 70.6219 56.0659 71.4124 57.0419 71.4124H92.9891C93.9651 71.4124 94.7563 70.6219 94.7563 69.6469C94.7563 68.6718 93.9651 67.8813 92.9891 67.8813Z" fill="#1757EB"/>
<path d="M103.695 59.5835H57.0419C56.0659 59.5835 55.2747 60.3739 55.2747 61.349C55.2747 62.3241 56.0659 63.1145 57.0419 63.1145H103.695C104.67 63.1145 105.462 62.3241 105.462 61.349C105.462 60.3739 104.67 59.5835 103.695 59.5835Z" fill="#1757EB"/>
<path d="M45.6155 59.5835H28.8841C27.0142 59.5835 25.4983 61.098 25.4983 62.9662V79.6821C25.4983 81.5504 27.0142 83.0649 28.8841 83.0649H45.6155C47.4854 83.0649 49.0013 81.5504 49.0013 79.6821V62.9662C49.0013 61.098 47.4854 59.5835 45.6155 59.5835Z" fill="#A7C4F7" stroke="#0F34CA" stroke-linecap="round" stroke-linejoin="round"/>
<path d="M92.9891 103.368H57.0419C56.0659 103.368 55.2747 104.159 55.2747 105.134C55.2747 106.109 56.0659 106.899 57.0419 106.899H92.9891C93.9651 106.899 94.7563 106.109 94.7563 105.134C94.7563 104.159 93.9651 103.368 92.9891 103.368Z" fill="#1757EB"/>
<path d="M103.695 95.0703H57.0419C56.0659 95.0703 55.2747 95.8608 55.2747 96.8358C55.2747 97.8109 56.0659 98.6013 57.0419 98.6013H103.695C104.67 98.6013 105.462 97.8109 105.462 96.8358C105.462 95.8608 104.67 95.0703 103.695 95.0703Z" fill="#1757EB"/>
<path d="M45.6155 95.0703H28.8841C27.0142 95.0703 25.4983 96.5848 25.4983 98.453V115.169C25.4983 117.037 27.0142 118.552 28.8841 118.552H45.6155C47.4854 118.552 49.0013 117.037 49.0013 115.169V98.453C49.0013 96.5848 47.4854 95.0703 45.6155 95.0703Z" fill="#A7C4F7" stroke="#0F34CA" stroke-linecap="round" stroke-linejoin="round"/>
<path d="M45.6155 24.0966H28.8841C27.0142 24.0966 25.4983 25.6111 25.4983 27.4793V44.1952C25.4983 46.0634 27.0142 47.5779 28.8841 47.5779H45.6155C47.4854 47.5779 49.0013 46.0634 49.0013 44.1952V27.4793C49.0013 25.6111 47.4854 24.0966 45.6155 24.0966Z" fill="#A7C4F7" stroke="#0F34CA" stroke-linecap="round" stroke-linejoin="round"/>
<path d="M92.9891 32.3947H57.0419C56.0659 32.3947 55.2747 33.1851 55.2747 34.1602C55.2747 35.1352 56.0659 35.9257 57.0419 35.9257H92.9891C93.9651 35.9257 94.7563 35.1352 94.7563 34.1602C94.7563 33.1851 93.9651 32.3947 92.9891 32.3947Z" fill="#1757EB"/>
<path d="M103.695 24.0966H57.0419C56.0659 24.0966 55.2747 24.887 55.2747 25.8621C55.2747 26.8371 56.0659 27.6276 57.0419 27.6276H103.695C104.67 27.6276 105.462 26.8371 105.462 25.8621C105.462 24.887 104.67 24.0966 103.695 24.0966Z" fill="#1757EB"/>
<path d="M39.9873 39.0152C39.6321 39.0152 39.3017 38.8387 39.1055 38.5438L32.5742 28.754C32.249 28.2668 32.3815 27.61 32.8675 27.2851C33.3552 26.9603 34.0126 27.0927 34.3378 27.5782L39.9856 36.0421L50.0548 20.8622C50.3782 20.3749 51.0355 20.2407 51.525 20.5638C52.0128 20.8869 52.1471 21.5437 51.8237 22.0327L40.8727 38.5403C40.6765 38.8351 40.3461 39.0135 39.9909 39.0152H39.9873Z" fill="#1757EB"/>
<path d="M39.9873 74.8553C39.6321 74.8553 39.3017 74.6788 39.1055 74.3839L32.5742 64.5941C32.249 64.1068 32.3815 63.4501 32.8675 63.1252C33.3552 62.8004 34.0126 62.9328 34.3378 63.4183L39.9856 71.8822L50.0548 56.7023C50.3782 56.215 51.0355 56.0808 51.525 56.4039C52.0128 56.727 52.1471 57.3838 51.8237 57.8728L40.8727 74.3804C40.6765 74.6752 40.3461 74.8535 39.9909 74.8553H39.9873Z" fill="#1757EB"/>
<path d="M93.9611 86.1102L94.8358 78.3984C94.9383 77.4945 95.8713 76.8324 96.7567 77.0337L104.127 78.7056C104.44 78.7762 104.707 78.9493 104.887 79.1982L133.068 117.95C133.512 118.559 133.321 119.45 132.646 119.941L124.374 125.946C123.697 126.436 122.79 126.341 122.347 125.732L94.1925 87.0177C94.007 86.7617 93.9257 86.4421 93.9628 86.112L93.9611 86.1102Z" fill="#A7C4F7" stroke="#0F34CA" stroke-linecap="round" stroke-linejoin="round"/>
<path d="M121.615 124.724L132.337 116.942L135.275 120.983C136.507 122.676 136.131 125.045 134.436 126.276L129.85 129.604C128.155 130.834 125.784 130.458 124.552 128.765L121.614 124.724" fill="#0F34CA"/>
<path d="M121.615 124.724L132.337 116.942L135.275 120.983C136.507 122.676 136.131 125.045 134.436 126.276L129.85 129.604C128.155 130.834 125.784 130.458 124.552 128.765L121.614 124.724" stroke="#0F34CA" stroke-linecap="round" stroke-linejoin="round"/>
<path d="M94.6876 81.3876L99.5525 77.8566L95.6489 76.7584C95.3061 76.6613 94.9615 76.9067 94.9403 77.2616L94.6876 81.3876Z" fill="#0F34CA" stroke="#0F34CA" stroke-linecap="round" stroke-linejoin="round"/>
<path d="M94.1908 87.0141L104.914 79.2317" stroke="#0F34CA" stroke-linecap="round" stroke-linejoin="round"/>
<path d="M131.197 122L124 127.265" stroke="#0F34CA" stroke-linecap="round" stroke-linejoin="round"/>
</svg>
