<svg width="140" height="140" viewBox="0 0 140 140" fill="none" xmlns="http://www.w3.org/2000/svg">
<path d="M21.4946 20.2125H23.9527V29.3931H21.4946C19.5669 29.3931 17.9999 27.8148 17.9999 25.8692V23.7347C17.9999 21.7908 19.5651 20.2107 21.4946 20.2107V20.2125Z" fill="#E6B756" stroke="#A17314" stroke-linecap="round" stroke-linejoin="round"/>
<path d="M21.4945 38.2913H23.9527V47.472H21.4945C19.5668 47.472 17.9998 45.8936 17.9998 43.948V41.8135C17.9998 39.8697 19.5651 38.2896 21.4945 38.2896V38.2913Z" fill="#E6B756" stroke="#A17314" stroke-linecap="round" stroke-linejoin="round"/>
<path d="M21.4945 56.3703H23.9527V65.551H21.4945C19.5668 65.551 17.9998 63.9726 17.9998 62.027V59.8925C17.9998 57.9487 19.5651 56.3685 21.4945 56.3685V56.3703Z" fill="#E6B756" stroke="#A17314" stroke-linecap="round" stroke-linejoin="round"/>
<path d="M21.4945 74.4492H23.9527V83.6298H21.4945C19.5668 83.6298 17.9998 82.0515 17.9998 80.1059V77.9714C17.9998 76.0275 19.5651 74.4474 21.4945 74.4474V74.4492Z" fill="#E6B756" stroke="#A17314" stroke-linecap="round" stroke-linejoin="round"/>
<path d="M21.4945 92.528H23.9527V101.709H21.4945C19.5668 101.709 17.9998 100.13 17.9998 98.1847V96.0502C17.9998 94.1064 19.5651 92.5262 21.4945 92.5262V92.528Z" fill="#E6B756" stroke="#A17314" stroke-linecap="round" stroke-linejoin="round"/>
<path d="M21.4945 110.607H23.9527V119.788H21.4945C19.5668 119.788 17.9998 118.209 17.9998 116.264V114.129C17.9998 112.185 19.5651 110.605 21.4945 110.605V110.607Z" fill="#E6B756" stroke="#A17314" stroke-linecap="round" stroke-linejoin="round"/>
<path d="M114.848 6H31.1049C27.1549 6 23.9528 9.22899 23.9528 13.2121V126.788C23.9528 130.771 27.1549 134 31.1049 134H114.848C118.798 134 122 130.771 122 126.788V13.2121C122 9.22899 118.798 6 114.848 6Z" fill="#FBECCD" stroke="#A17314" stroke-linecap="round" stroke-linejoin="round"/>
<path d="M47.7236 92.5951L51.8574 102.743H52.0324L56.1557 92.5951H59.962V107.574H56.9663V97.7557H56.8438L52.9656 107.501H50.9031L47.0355 97.7363H46.913V107.574H43.9278V92.5951H47.7236Z" fill="#A17314"/>
<path d="M62.4761 92.595H72.4472V95.1603H65.5523V98.8008H71.9237V101.356H65.5523V105.007H72.4664V107.572H62.4744V92.5933L62.4761 92.595Z" fill="#A17314"/>
<path d="M87.2209 107.574H84.5544L78.029 98.0558H77.917V107.574H74.839V92.5951H77.5475L84.0204 102.102H84.1535V92.5951H87.2209V107.574Z" fill="#A17314"/>
<path d="M102.025 92.5951V102.33C102.025 103.412 101.769 104.366 101.259 105.19C100.75 106.015 100.029 106.652 99.0954 107.104C98.1622 107.556 97.089 107.782 95.8791 107.782C94.6693 107.782 93.582 107.556 92.6576 107.104C91.7349 106.652 91.017 106.015 90.5075 105.19C89.9981 104.366 89.7424 103.412 89.7424 102.33V92.5951H92.8204V102.071C92.8204 102.643 92.9465 103.153 93.2003 103.601C93.4542 104.05 93.8114 104.403 94.2719 104.662C94.7323 104.922 95.2681 105.051 95.8774 105.051C96.4867 105.051 97.0137 104.922 97.4829 104.662C97.9521 104.403 98.3093 104.05 98.5544 103.601C98.8013 103.153 98.9273 102.643 98.9344 102.071V92.5951H102.023H102.025Z" fill="#A17314"/>
<path d="M104.404 69.2938H102.152L101.797 62.7526C101.049 48.9921 89.7649 38.2207 76.0979 38.2207H69.8526C56.1855 38.2207 44.9014 48.9921 44.1538 62.7526L43.7983 69.2938H41.5468C39.7101 69.2938 38.2202 70.7963 38.2202 72.6483C38.2202 74.5003 39.7101 76.0028 41.5468 76.0028H104.402C106.239 76.0028 107.729 74.5003 107.729 72.6483C107.729 70.7963 106.239 69.2938 104.402 69.2938H104.404Z" fill="#FAD486" stroke="#A17314" stroke-linecap="round" stroke-linejoin="round"/>
<path d="M72.1517 32.2179H73.7992C74.6081 32.2179 75.2664 32.88 75.2664 33.6974V38.2207H70.6844V33.6974C70.6844 32.8817 71.341 32.2179 72.1517 32.2179Z" fill="#FAD486" stroke="#A17314" stroke-linecap="round" stroke-linejoin="round"/>
<path d="M43.8002 69.2938H95.6163" stroke="#A17314" stroke-linecap="round" stroke-linejoin="round"/>
</svg>
