<svg width="1004" height="196" viewBox="0 0 1004 196" fill="none" xmlns="http://www.w3.org/2000/svg">
<path d="M60.2404 40.1499H146.59C157.21 40.1499 165.82 31.5399 165.82 20.9199C165.82 10.2999 157.21 1.68994 146.59 1.68994H60.8304C28.4804 1.68994 1.39044 28.16 2.01044 60.5099C2.61044 91.8499 28.2004 117.08 59.6904 117.08H66.1004H103.85C114.47 117.08 123.08 125.69 123.08 136.31C123.08 146.93 114.47 155.54 103.85 155.54H21.2304C10.6104 155.54 2.00044 164.15 2.00044 174.77C2.00044 185.39 10.6104 194 21.2304 194H103.85C135.71 194 161.54 168.17 161.54 136.31C161.54 104.45 135.71 78.6199 103.85 78.6199H98.8604H59.6904C48.7604 78.6199 39.9604 69.4999 40.4804 58.4599C40.9704 48.1199 49.8804 40.1599 60.2304 40.1599L60.2404 40.1499Z" fill="#B53B20"/>
<path d="M284.41 20.9199C284.41 10.2999 275.8 1.68994 265.18 1.68994H148.37C137.75 1.68994 129.14 10.2999 129.14 20.9199C129.14 31.5399 137.75 40.1499 148.37 40.1499H183.66C184.63 40.1499 185.41 40.9299 185.41 41.8999V174.77C185.41 185.39 194.02 194 204.64 194C215.26 194 223.87 185.39 223.87 174.77V41.8999C223.87 40.9299 224.65 40.1499 225.62 40.1499H265.18C275.8 40.1499 284.41 31.5399 284.41 20.9199Z" fill="#1635B1"/>
<path d="M365.39 38.02C365.39 17.96 352.63 1.68994 336.9 1.68994C321.17 1.68994 308.41 17.95 308.41 38.02C308.41 53.68 316.18 67.0199 327.07 72.1199L325.25 187.8C325.2 191.21 327.94 194 331.35 194H341.74C345.15 194 347.9 191.21 347.84 187.8L346.02 72.4299C357.28 67.5799 365.38 54.01 365.38 38.02H365.39Z" fill="white" stroke="#939BAA" stroke-width="3" stroke-linecap="round" stroke-linejoin="round"/>
<path d="M420.6 3.12987C417.9 3.26987 415.88 5.68988 415.88 8.38988V44.3799C415.88 45.1999 415.22 45.8599 414.4 45.8599H404.5C403.68 45.8599 403.02 45.1999 403.02 44.3799V6.96986C403.02 4.26986 401 1.84985 398.3 1.70985C395.42 1.55985 393.05 3.84986 393.05 6.68986V44.3799C393.05 45.1999 392.39 45.8599 391.57 45.8599H381.67C380.85 45.8599 380.19 45.1999 380.19 44.3799V8.38988C380.19 5.68988 378.17 3.26987 375.47 3.12987C372.59 2.97987 370.22 5.26988 370.22 8.10988V45.8599C372.35 58.2199 379.42 68.1999 388.65 72.3099L386.41 187.78C386.34 191.2 389.1 194 392.51 194H402.85C406.27 194 409.02 191.19 408.95 187.78L406.71 72.5899C416.28 68.6799 423.66 58.5199 425.85 45.8499V8.09987C425.85 5.25987 423.47 2.96986 420.6 3.11986V3.12987Z" fill="white" stroke="#939BAA" stroke-width="3" stroke-linecap="round" stroke-linejoin="round"/>
<path d="M449.85 137.16C449.85 128.3 451.51 120.31 454.83 113.2C458.15 106.09 462.64 100.06 468.3 95.1001C473.95 90.1501 480.54 86.3601 488.06 83.7301C495.58 81.1101 503.59 79.8 512.1 79.8C520.61 79.8 528.83 81.1101 536.41 83.7301C543.99 86.3501 550.58 90.1101 556.17 95.0101C561.77 99.9101 566.19 105.91 569.46 113.02C572.72 120.13 574.36 128.12 574.36 136.98C574.36 145.84 572.73 153.62 569.46 160.67C566.2 167.72 561.77 173.73 556.17 178.68C550.57 183.63 543.99 187.42 536.41 190.05C528.83 192.67 520.73 193.98 512.1 193.98C503.47 193.98 495.58 192.67 488.06 190.05C480.54 187.43 473.95 183.67 468.3 178.77C462.64 173.87 458.16 167.9 454.83 160.85C451.51 153.8 449.85 145.9 449.85 137.16ZM512.11 164.09C516.07 164.09 519.69 163.39 522.951 161.99C526.211 160.59 528.95 158.7 531.17 156.31C533.38 153.92 535.101 151.09 536.331 147.83C537.561 144.57 538.17 141.01 538.17 137.16C538.17 133.31 537.561 129.55 536.331 126.23C535.111 122.91 533.39 120.02 531.17 117.57C528.95 115.12 526.211 113.23 522.951 111.89C519.69 110.55 516.07 109.88 512.11 109.88C508.15 109.88 504.39 110.58 501.18 111.98C497.97 113.38 495.23 115.3 492.96 117.75C490.69 120.2 488.97 123.08 487.8 126.41C486.63 129.73 486.05 133.32 486.05 137.17C486.05 141.02 486.63 144.57 487.8 147.84C488.96 151.11 490.68 153.93 492.96 156.32C495.23 158.71 497.97 160.6 501.18 162C504.38 163.4 508.03 164.1 512.11 164.1V164.09Z" fill="#939BAA"/>
<path d="M613.59 94.14C616.27 91.11 619.65 88.8401 623.73 87.3201C627.81 85.8101 632.06 85.05 636.5 85.05H659.23L652.93 115.13H631.951C629.851 115.13 627.87 115.6 626 116.53C624.14 117.46 622.5 118.75 621.1 120.38C619.7 122.01 618.59 123.94 617.78 126.15C616.96 128.37 616.55 130.76 616.55 133.32V188.75H580.18V85.05H611.31L613.581 94.14H613.59Z" fill="#939BAA"/>
<path d="M753.541 49.3801H789.741V188.75H758.611L755.811 180.36C750.911 184.44 745.401 187.47 739.291 189.45C733.171 191.43 726.841 192.36 720.321 192.25C712.161 192.13 704.701 190.68 697.941 187.88C691.181 185.08 685.351 181.23 680.451 176.34C675.551 171.44 671.761 165.67 669.081 159.03C666.401 152.38 665.061 145.1 665.061 137.17C665.061 129.24 666.491 121.52 669.341 114.7C672.191 107.88 676.101 102.02 681.051 97.1201C686.011 92.2201 691.831 88.4101 698.541 85.6701C705.241 82.9301 712.441 81.5601 720.141 81.5601C726.441 81.5601 732.351 82.3201 737.891 83.8301C743.431 85.3501 748.651 87.7401 753.541 91.0001V49.3801ZM725.741 162.17C733.091 162.17 738.971 159.84 743.401 155.18C747.831 150.52 750.041 144.51 750.041 137.17C750.041 129.83 747.831 123.33 743.401 118.72C738.971 114.12 733.081 111.81 725.741 111.81C718.401 111.81 712.511 114.11 708.081 118.72C703.651 123.33 701.431 129.47 701.431 137.17C701.431 144.87 703.641 150.52 708.081 155.18C712.511 159.84 718.401 162.17 725.741 162.17Z" fill="#939BAA"/>
<path d="M834.041 155.7C839.291 162.34 846.921 165.67 856.951 165.67C863.941 165.67 869.951 164.59 874.961 162.44C879.971 160.28 884.691 156.82 889.121 152.03L912.731 169.52C906.081 177.21 898.481 183.22 889.911 187.53C881.341 191.84 871.291 194 859.741 194C850.301 194 841.671 192.69 833.861 190.07C826.051 187.45 819.281 183.69 813.581 178.79C807.871 173.89 803.441 167.92 800.291 160.87C797.141 153.82 795.571 145.86 795.571 137C795.571 128.14 797.171 120.53 800.381 113.48C803.581 106.43 807.991 100.43 813.581 95.4701C819.181 90.5201 825.701 86.6701 833.161 83.9301C840.621 81.1901 848.611 79.8201 857.121 79.8201C865.631 79.8201 873.911 81.1301 881.251 83.7501C888.591 86.3701 894.891 90.1301 900.141 95.0301C905.391 99.9301 909.501 105.93 912.471 113.04C915.441 120.15 916.931 128.2 916.931 137.17L834.041 155.71V155.7ZM858.351 107.78C850.421 107.78 843.891 109.7 838.761 113.55C833.631 117.4 830.371 122.76 828.971 129.64L880.031 118.27C877.701 115.24 874.721 112.73 871.111 110.75C867.501 108.77 863.241 107.78 858.341 107.78H858.351Z" fill="#939BAA"/>
<path d="M956.161 94.14C958.841 91.11 962.221 88.8401 966.301 87.3201C970.381 85.8101 974.631 85.05 979.071 85.05H1001.8L995.511 115.13H974.531C972.431 115.13 970.451 115.6 968.581 116.53C966.711 117.46 965.081 118.75 963.681 120.38C962.281 122.01 961.171 123.94 960.361 126.15C959.541 128.37 959.141 130.76 959.141 133.32V188.75H922.771V85.05H953.901L956.171 94.14H956.161Z" fill="#939BAA"/>
</svg>
