<svg width="592" height="555" viewBox="0 0 592 555" fill="none" xmlns="http://www.w3.org/2000/svg">
<path d="M144.825 129.495H231.175C241.795 129.495 250.405 120.885 250.405 110.265C250.405 99.645 241.795 91.035 231.175 91.035H145.415C113.065 91.035 85.9752 117.505 86.5952 149.855C87.1952 181.195 112.785 206.425 144.275 206.425H150.685H188.435C199.055 206.425 207.665 215.035 207.665 225.655C207.665 236.275 199.055 244.885 188.435 244.885H105.815C95.1952 244.885 86.5852 253.495 86.5852 264.115C86.5852 274.735 95.1952 283.345 105.815 283.345H188.435C220.295 283.345 246.125 257.515 246.125 225.655C246.125 193.795 220.295 167.965 188.435 167.965H183.445H144.275C133.345 167.965 124.545 158.845 125.065 147.805C125.555 137.465 134.465 129.505 144.815 129.505L144.825 129.495Z" fill="#B53B20"/>
<path d="M369.005 110.265C369.005 99.645 360.395 91.035 349.775 91.035H232.965C222.345 91.035 213.735 99.645 213.735 110.265C213.735 120.885 222.345 129.495 232.965 129.495H268.255C269.225 129.495 270.005 130.275 270.005 131.245V264.115C270.005 274.735 278.615 283.345 289.235 283.345C299.855 283.345 308.465 274.735 308.465 264.115V131.245C308.465 130.275 309.245 129.495 310.215 129.495H349.775C360.395 129.495 369.005 120.885 369.005 110.265Z" fill="#1635B1"/>
<path d="M445.895 127.605C445.895 107.575 433.155 91.335 417.455 91.335C401.755 91.335 389.015 107.575 389.015 127.605C389.015 143.235 396.775 156.555 407.645 161.655L405.825 277.145C405.775 280.545 408.515 283.335 411.915 283.335H422.285C425.685 283.335 428.435 280.545 428.375 277.145L426.565 161.955C437.805 157.115 445.895 143.565 445.895 127.605Z" fill="white" stroke="#939BAA" stroke-width="3" stroke-linecap="round" stroke-linejoin="round"/>
<path d="M500.195 92.7749C497.505 92.9149 495.485 95.3349 495.485 98.0249V133.955C495.485 134.775 494.825 135.435 494.005 135.435H484.115C483.295 135.435 482.635 134.775 482.635 133.955V96.6049C482.635 93.9049 480.615 91.4949 477.925 91.3549C475.055 91.2049 472.675 93.4849 472.675 96.3249V133.955C472.675 134.775 472.015 135.435 471.195 135.435H461.305C460.485 135.435 459.825 134.775 459.825 133.955V98.0249C459.825 95.3249 457.805 92.9149 455.115 92.7749C452.245 92.6249 449.865 94.9049 449.865 97.7449V135.435C451.995 147.775 459.045 157.745 468.265 161.845L466.025 277.135C465.955 280.545 468.705 283.345 472.115 283.345H482.445C485.855 283.345 488.605 280.545 488.535 277.135L486.305 162.135C495.865 158.235 503.225 148.085 505.415 135.445V97.7549C505.415 94.9149 503.045 92.6349 500.165 92.7849L500.195 92.7749Z" fill="white" stroke="#939BAA" stroke-width="3" stroke-linecap="round" stroke-linejoin="round"/>
<path d="M20.03 407.125C20.03 398.265 21.69 390.275 25.01 383.165C28.33 376.055 32.82 370.025 38.48 365.065C44.13 360.115 50.72 356.325 58.24 353.695C65.76 351.075 73.77 349.765 82.28 349.765C90.79 349.765 99.01 351.075 106.59 353.695C114.17 356.315 120.76 360.075 126.35 364.975C131.95 369.875 136.37 375.875 139.64 382.985C142.9 390.095 144.54 398.085 144.54 406.945C144.54 415.805 142.91 423.585 139.64 430.635C136.38 437.685 131.95 443.695 126.35 448.645C120.75 453.595 114.17 457.385 106.59 460.015C99.01 462.635 90.91 463.945 82.28 463.945C73.65 463.945 65.76 462.635 58.24 460.015C50.72 457.395 44.13 453.635 38.48 448.735C32.82 443.835 28.34 437.865 25.01 430.815C21.69 423.765 20.03 415.865 20.03 407.125ZM82.28 434.055C86.24 434.055 89.86 433.355 93.12 431.955C96.38 430.555 99.12 428.665 101.34 426.275C103.55 423.885 105.27 421.055 106.5 417.795C107.73 414.535 108.34 410.975 108.34 407.125C108.34 403.275 107.73 399.515 106.5 396.195C105.28 392.875 103.56 389.985 101.34 387.535C99.12 385.085 96.38 383.195 93.12 381.855C89.86 380.515 86.24 379.845 82.28 379.845C78.32 379.845 74.56 380.545 71.35 381.945C68.14 383.345 65.4 385.265 63.13 387.715C60.86 390.165 59.14 393.045 57.97 396.375C56.8 399.695 56.22 403.285 56.22 407.135C56.22 410.985 56.8 414.535 57.97 417.805C59.13 421.075 60.85 423.895 63.13 426.285C65.4 428.675 68.14 430.565 71.35 431.965C74.55 433.365 78.2 434.065 82.28 434.065V434.055Z" fill="#939BAA"/>
<path d="M183.76 364.105C186.44 361.075 189.82 358.805 193.9 357.285C197.98 355.775 202.23 355.015 206.67 355.015H229.4L223.1 385.095H202.12C200.02 385.095 198.04 385.565 196.17 386.495C194.31 387.425 192.67 388.715 191.27 390.345C189.87 391.975 188.76 393.905 187.95 396.115C187.13 398.335 186.72 400.725 186.72 403.285V458.715H150.35V355.015H181.48L183.75 364.105H183.76Z" fill="#939BAA"/>
<path d="M323.72 319.345H359.92V458.715H328.79L325.99 450.325C321.09 454.405 315.58 457.435 309.47 459.415C303.35 461.395 297.02 462.325 290.5 462.215C282.34 462.095 274.88 460.645 268.12 457.845C261.36 455.045 255.53 451.195 250.63 446.305C245.73 441.405 241.94 435.635 239.26 428.995C236.58 422.345 235.24 415.065 235.24 407.135C235.24 399.205 236.67 391.485 239.52 384.665C242.37 377.845 246.28 371.985 251.23 367.085C256.19 362.185 262.01 358.375 268.72 355.635C275.42 352.895 282.62 351.525 290.32 351.525C296.62 351.525 302.53 352.285 308.07 353.795C313.61 355.315 318.83 357.705 323.72 360.965V319.345ZM295.91 432.135C303.26 432.135 309.14 429.805 313.57 425.145C318 420.485 320.21 414.475 320.21 407.135C320.21 399.795 318 393.295 313.57 388.685C309.14 384.085 303.25 381.775 295.91 381.775C288.57 381.775 282.68 384.075 278.25 388.685C273.82 393.295 271.6 399.435 271.6 407.135C271.6 414.835 273.81 420.485 278.25 425.145C282.68 429.805 288.57 432.135 295.91 432.135Z" fill="#939BAA"/>
<path d="M404.22 425.665C409.47 432.305 417.1 435.635 427.13 435.635C434.12 435.635 440.13 434.555 445.14 432.405C450.15 430.245 454.87 426.785 459.3 421.995L482.91 439.485C476.26 447.175 468.66 453.185 460.09 457.495C451.52 461.805 441.47 463.965 429.92 463.965C420.48 463.965 411.85 462.655 404.04 460.035C396.23 457.415 389.46 453.655 383.76 448.755C378.05 443.855 373.62 437.885 370.47 430.835C367.32 423.785 365.75 415.825 365.75 406.965C365.75 398.105 367.35 390.495 370.56 383.445C373.76 376.395 378.17 370.395 383.76 365.435C389.36 360.485 395.88 356.635 403.34 353.895C410.8 351.155 418.79 349.785 427.3 349.785C435.81 349.785 444.09 351.095 451.43 353.715C458.77 356.335 465.07 360.095 470.32 364.995C475.57 369.895 479.68 375.895 482.65 383.005C485.62 390.115 487.11 398.165 487.11 407.135L404.22 425.675V425.665ZM428.52 377.745C420.59 377.745 414.06 379.665 408.93 383.515C403.8 387.365 400.54 392.725 399.14 399.605L450.2 388.235C447.87 385.205 444.89 382.695 441.28 380.715C437.67 378.735 433.41 377.745 428.51 377.745H428.52Z" fill="#939BAA"/>
<path d="M526.33 364.105C529.01 361.075 532.39 358.805 536.47 357.285C540.55 355.775 544.8 355.015 549.24 355.015H571.97L565.68 385.095H544.7C542.6 385.095 540.62 385.565 538.75 386.495C536.88 387.425 535.25 388.715 533.85 390.345C532.45 391.975 531.34 393.905 530.53 396.115C529.71 398.335 529.31 400.725 529.31 403.285V458.715H492.94V355.015H524.07L526.34 364.105H526.33Z" fill="#939BAA"/>
</svg>
